<svg width="180" height="81" viewBox="0 0 180 81" fill="none" xmlns="http://www.w3.org/2000/svg">
<g clip-path="url(#clip0_454_738)">
<path d="M9.29831 75.1862C8.80257 75.1862 8.45264 75.0482 8.2456 74.7749C8.03855 74.5017 7.93649 74.131 7.93649 73.6645L8.26601 54.9889C8.26601 54.7418 8.23102 54.5645 8.16249 54.4541C8.09396 54.345 8.00356 54.2767 7.8942 54.2477C7.78339 54.2201 7.65363 54.2142 7.50199 54.2273C7.35035 54.2419 7.19288 54.2477 7.02812 54.2477C6.78025 54.2477 6.60091 54.1648 6.49155 54.0006C6.38074 53.8363 6.31221 53.6445 6.28451 53.425C6.2014 52.5195 6.10517 51.5951 5.99581 50.6489C5.885 49.7027 5.83105 48.7768 5.83105 47.8728C5.83105 46.9687 6.32679 46.4469 7.31681 46.3917L27.247 45.1577H27.454C28.4441 45.1577 28.9398 45.6795 28.9398 46.7202L29.0229 53.0544C29.0229 54.0965 28.5417 54.6183 27.578 54.6183C26.3401 54.6183 25.1022 54.5703 23.8643 54.4744C22.6264 54.3785 21.3885 54.3305 20.1506 54.3305C19.1329 54.3305 18.624 54.8523 18.624 55.8944V57.0049C18.624 57.3886 18.6649 57.7316 18.748 58.0339C18.8311 58.3363 18.9886 58.5833 19.2218 58.7737C19.4551 58.9656 19.8196 59.0615 20.3154 59.0615L25.3909 58.9787C25.8866 58.9787 26.2788 59.1022 26.5675 59.3493C26.8562 59.5964 27.0006 59.9801 27.0006 60.5005C27.0006 62.31 26.9802 63.6341 26.9393 64.4699C26.8985 65.3071 26.6711 65.855 26.2584 66.1152C25.8458 66.3768 25.1649 66.4655 24.2157 66.3826C23.2665 66.2998 21.8974 66.2591 20.1098 66.2591C19.5864 66.2591 19.2014 66.403 18.955 66.6908C18.7072 66.9785 18.5832 67.3695 18.5832 67.8637L18.6663 72.8825C18.6663 73.9799 18.1152 74.5685 17.0158 74.6514C15.7502 74.7342 14.4642 74.8432 13.1578 74.9799C11.8514 75.1165 10.5639 75.1862 9.29977 75.1862H9.29831Z" fill="black" stroke="white" stroke-width="11.6277" stroke-miterlimit="10"/>
<path d="M34.0984 56.2635C34.0707 55.4408 33.6449 55.0295 32.8196 55.0295C31.9944 55.0295 31.4986 54.6327 31.417 53.8362L30.9635 48.4889C30.8804 47.393 31.3762 46.7884 32.4493 46.6794L45.2 45.3218C46.6027 45.1576 48.1234 45.1721 49.7593 45.3625C51.3953 45.5544 52.9219 45.9657 54.3391 46.5965C55.7563 47.2273 56.9315 48.1328 57.8676 49.3116C58.8022 50.4903 59.2703 51.9845 59.2703 53.7955C59.2703 55.935 58.8576 57.6486 58.0324 58.9379C57.2071 60.2271 55.9284 61.2692 54.1948 62.0643C53.2047 62.5032 53.1085 63.0788 53.9061 63.7924L59.2294 68.5234C60.0547 69.2633 60.0139 69.9493 59.1055 70.5801L52.9991 74.7762C52.0631 75.407 51.2932 75.2704 50.6881 74.3649L45.4479 66.8374C44.8151 65.9058 44.4987 66.0017 44.4987 67.1252V72.6789C44.4987 73.7763 43.9475 74.3649 42.8482 74.4478L36.2053 74.8998C35.1044 74.9826 34.5402 74.4754 34.5139 73.378L34.1013 56.2664L34.0984 56.2635ZM44.4972 58.0323C45.0469 58.0323 45.6316 58.012 46.2513 57.9713C46.8709 57.9306 47.4542 57.8216 48.0053 57.6428C48.555 57.4655 49.0084 57.1835 49.3671 56.7998C49.7244 56.4161 49.9037 55.8681 49.9037 55.1545C49.9037 54.7432 49.8206 54.4147 49.6558 54.1676C49.4911 53.9205 49.2709 53.7359 48.9953 53.6124C48.7198 53.4888 48.4238 53.4132 48.1088 53.3856C47.7924 53.358 47.4687 53.3449 47.1392 53.3449C46.6989 53.3449 46.2586 53.3726 45.8182 53.4278C45.3779 53.483 44.9376 53.5382 44.4972 53.592V58.0353V58.0323Z" fill="black" stroke="white" stroke-width="11.6277" stroke-miterlimit="10"/>
<path d="M61.7229 47.7798C61.7229 43.6214 64.1156 41.543 68.9038 41.543C73.6921 41.543 76.0425 43.6214 76.0425 47.7798C76.0425 51.9381 73.6629 54.0587 68.9038 54.0587C64.1447 54.0587 61.7229 51.9657 61.7229 47.7798ZM63.4026 74.5278C62.3105 74.5278 61.7783 73.9697 61.8075 72.8534L62.4373 56.9889C62.4651 55.8727 63.0526 55.3145 64.2016 55.3145L73.2299 55.4395C74.3497 55.4395 74.9227 55.9977 74.9518 57.1139L75.4972 73.0206C75.5249 74.1369 74.9781 74.695 73.8598 74.695L63.404 74.5278H63.4026Z" fill="black" stroke="white" stroke-width="11.6277" stroke-miterlimit="10"/>
<path d="M78.8533 47.7798C78.8533 43.6214 81.2459 41.543 86.0342 41.543C90.8225 41.543 93.1728 43.6214 93.1728 47.7798C93.1728 51.9381 90.7933 54.0587 86.0342 54.0587C81.2751 54.0587 78.8533 51.9657 78.8533 47.7798ZM80.533 74.5278C79.4409 74.5278 78.9087 73.9697 78.9378 72.8534L79.5677 56.9889C79.5954 55.8727 80.183 55.3145 81.332 55.3145L90.3603 55.4395C91.48 55.4395 92.0531 55.9977 92.0822 57.1139L92.6275 73.0206C92.6552 74.1369 92.1085 74.695 90.9901 74.695L80.5344 74.5278H80.533Z" fill="black" stroke="white" stroke-width="11.6277" stroke-miterlimit="10"/>
<path d="M105.128 54.4947C105.842 53.6997 105.664 53.3567 104.591 53.4657L98.4848 54.1648C97.384 54.2753 96.7381 53.8087 96.5456 52.7666L95.4316 47.0487C95.2115 45.9789 95.6649 45.4179 96.7935 45.3626L118.54 44.2115C119.614 44.1839 120.108 44.7057 120.026 45.774L119.53 51.4919C119.447 52.5892 119.035 53.5485 118.293 54.3712L110.245 63.544C109.502 64.3667 109.694 64.6951 110.823 64.5309L118.374 63.4204C119.503 63.2562 120.08 63.7228 120.108 64.8187L120.356 72.3869C120.411 73.5118 119.888 74.0874 118.788 74.115L97.9905 75.1848C96.8897 75.2124 96.3254 74.6906 96.2992 73.6208L96.0513 66.3812C96.0236 65.3114 96.3808 64.3521 97.1245 63.5018L105.129 54.4933L105.128 54.4947Z" fill="black" stroke="white" stroke-width="11.6277" stroke-miterlimit="10"/>
<path d="M132.032 54.4947C132.746 53.6997 132.568 53.3567 131.495 53.4657L125.389 54.1648C124.288 54.2753 123.642 53.8087 123.45 52.7666L122.336 47.0487C122.116 45.9789 122.569 45.4179 123.698 45.3626L145.444 44.2115C146.518 44.1839 147.012 44.7057 146.93 45.774L146.434 51.4919C146.351 52.5892 145.939 53.5485 145.197 54.3712L137.15 63.544C136.406 64.3667 136.598 64.6951 137.727 64.5309L145.278 63.4204C146.407 63.2562 146.984 63.7228 147.012 64.8187L147.26 72.3869C147.315 73.5118 146.792 74.0874 145.692 74.115L124.895 75.1848C123.794 75.2124 123.229 74.6906 123.203 73.6208L122.955 66.3812C122.928 65.3114 123.285 64.3521 124.029 63.5018L132.033 54.4933L132.032 54.4947Z" fill="black" stroke="white" stroke-width="11.6277" stroke-miterlimit="10"/>
<path d="M158.937 54.4947C159.651 53.6997 159.473 53.3567 158.4 53.4657L152.294 54.1648C151.193 54.2753 150.547 53.8087 150.355 52.7666L149.241 47.0487C149.021 45.9789 149.474 45.4179 150.603 45.3626L172.349 44.2115C173.423 44.1839 173.917 44.7057 173.835 45.774L173.339 51.4919C173.256 52.5892 172.844 53.5485 172.102 54.3712L164.055 63.544C163.311 64.3667 163.503 64.6951 164.632 64.5309L172.183 63.4204C173.312 63.2562 173.889 63.7228 173.917 64.8187L174.165 72.3869C174.22 73.5118 173.697 74.0874 172.597 74.115L151.8 75.1848C150.699 75.2124 150.135 74.6906 150.108 73.6208L149.86 66.3812C149.833 65.3114 150.19 64.3521 150.934 63.5018L158.938 54.4933L158.937 54.4947Z" fill="black" stroke="white" stroke-width="11.6277" stroke-miterlimit="10"/>
<path d="M88.6925 38.5242C88.0028 38.9108 87.2388 39.1259 86.399 39.1681C85.5591 39.2117 84.7514 39.1463 83.9757 38.9747C83.4595 38.8454 82.9521 38.6753 82.4578 38.4602C81.9621 38.2466 81.564 37.9457 81.2622 37.5591C80.9167 37.1303 80.7023 36.5722 80.6163 35.8847C80.5288 35.1987 80.5201 34.4894 80.5842 33.7597C80.6484 33.0301 80.7884 32.3223 81.0042 31.6348C81.2185 30.9487 81.4561 30.3688 81.7142 29.8964C82.2304 28.9531 82.834 28.0723 83.5237 27.2555C84.2119 26.4401 84.9657 25.6668 85.7851 24.9372C86.6468 24.1218 87.4867 23.3064 88.3046 22.4896C89.1226 21.6742 89.7685 20.7294 90.2424 19.6553C90.6302 18.6684 90.6302 17.6059 90.2424 16.4679C89.8546 15.3313 89.1649 14.5043 88.1749 13.9883C87.701 13.731 87.1411 13.6235 86.4952 13.6656C85.8493 13.7092 85.2675 13.8589 84.7514 14.1162C84.1477 14.417 83.6214 14.792 83.1679 15.2426C82.7159 15.6932 82.2843 16.1772 81.8761 16.6917C81.4664 17.2062 81.0362 17.712 80.5842 18.2048C80.1322 18.6989 79.6248 19.0957 79.0664 19.3966C78.5065 19.7832 77.8168 19.9344 76.9989 19.8472C76.6971 19.805 76.3311 19.7077 75.901 19.5579C75.4694 19.4082 75.0495 19.2149 74.6412 18.978C74.2315 18.7426 73.8553 18.4737 73.5112 18.1728C73.1671 17.8734 72.9294 17.5929 72.8011 17.3356C72.543 16.8632 72.4352 16.369 72.4774 15.8545C72.5212 15.34 72.5853 14.8458 72.6714 14.3734C72.7588 13.7732 72.9294 13.2136 73.1875 12.6991C73.4456 12.1845 73.7255 11.6904 74.0273 11.218C75.0611 9.58719 76.4506 8.21367 78.1945 7.09596C79.9383 5.9797 81.758 5.20646 83.6534 4.77769C85.5912 4.34892 87.6048 4.25299 89.6942 4.48845C91.7821 4.72536 93.7097 5.33727 95.4768 6.32417C96.2088 6.7544 96.9407 7.23695 97.6741 7.77327C98.4061 8.31105 99.0082 8.94331 99.4836 9.67295C100.216 10.7907 100.721 12.0465 101.001 13.4403C101.281 14.8356 101.334 16.2208 101.163 17.5943C100.991 18.8399 100.647 20.0739 100.129 21.2977C99.6133 22.5216 98.9441 23.6276 98.1261 24.6145C97.5225 25.3878 96.8663 26.0956 96.1563 26.7395C95.4462 27.3834 94.7667 28.0709 94.1208 28.8005C93.1294 29.831 92.3332 31.0984 91.7296 32.5999C91.4715 33.2016 91.266 33.8237 91.1158 34.4676C90.9641 35.1114 90.76 35.735 90.5019 36.3353C90.2861 36.7655 90.0383 37.1841 89.7583 37.5911C89.4784 37.9995 89.1226 38.3105 88.6925 38.5256V38.5242ZM94.1194 9.28342C94.3337 9.54068 94.5714 9.67004 94.8294 9.67004C95.0875 9.67004 95.3135 9.58429 95.5074 9.41278C95.7014 9.24127 95.8195 9.02616 95.8632 8.76889C95.9055 8.51163 95.8195 8.25437 95.6051 7.99565C95.5176 7.9099 95.4331 7.83432 95.3471 7.77037C95.2596 7.70641 95.175 7.63083 95.089 7.54508C94.6574 7.15846 94.1733 6.84742 93.6353 6.6105C93.0958 6.37504 92.5695 6.12795 92.0518 5.86924C91.8361 5.78348 91.5882 5.73988 91.3082 5.73988C91.0283 5.73988 90.7804 5.69773 90.5646 5.61052C90.3488 5.52477 90.0149 5.47099 89.5629 5.44919C89.1109 5.42738 88.7771 5.43901 88.5613 5.48116C88.2157 5.56837 87.9897 5.72825 87.8833 5.96371C87.7754 6.20063 87.7433 6.43609 87.787 6.67155C87.8293 6.90846 87.9489 7.11195 88.1428 7.28346C88.3367 7.45496 88.605 7.49857 88.9506 7.41281C89.0803 7.37066 89.2947 7.35904 89.5965 7.38084C89.8968 7.40264 90.0908 7.43462 90.1782 7.47677C90.2643 7.52037 90.4363 7.54072 90.6944 7.54072C90.9525 7.54072 91.1245 7.56252 91.2105 7.60467C91.6844 7.90554 92.2006 8.14245 92.7605 8.31251C93.3204 8.48402 93.7724 8.80668 94.1179 9.27906L94.1194 9.28342ZM95.9288 10.5072C96.0148 10.8517 96.2292 11.077 96.5747 11.1831C96.9188 11.2907 97.2425 11.2151 97.5443 10.9578C97.8447 10.7427 97.9745 10.4651 97.9322 10.1206C97.8884 9.7776 97.6945 9.52033 97.3504 9.34737C96.9626 9.13371 96.6068 9.16569 96.2846 9.4433C95.9609 9.72237 95.8428 10.077 95.9288 10.5058V10.5072Z" fill="white" stroke="white" stroke-width="8.72077" stroke-miterlimit="10"/>
<path d="M9.30246 75.1412C8.80672 75.1412 8.45679 75.0031 8.24975 74.7299C8.0427 74.4566 7.94064 74.086 7.94064 73.6194L8.27016 54.9439C8.27016 54.6968 8.23517 54.5195 8.16664 54.409C8.09811 54.3 8.00771 54.2317 7.89835 54.2026C7.78754 54.175 7.65778 54.1692 7.50614 54.1823C7.3545 54.1968 7.19703 54.2026 7.03227 54.2026C6.7844 54.2026 6.60506 54.1198 6.4957 53.9555C6.38489 53.7913 6.31636 53.5994 6.28866 53.38C6.20555 52.4745 6.10932 51.5501 5.99997 50.6039C5.88915 49.6576 5.83521 48.7318 5.83521 47.8277C5.83521 46.9237 6.33094 46.4019 7.32096 46.3467L27.2511 45.1127H27.4582C28.4482 45.1127 28.9439 45.6345 28.9439 46.6751L29.0271 53.0093C29.0271 54.0515 28.5459 54.5733 27.5821 54.5733C26.3442 54.5733 25.1063 54.5253 23.8684 54.4294C22.6306 54.3334 21.3927 54.2855 20.1548 54.2855C19.1371 54.2855 18.6282 54.8073 18.6282 55.8494V56.9598C18.6282 57.3436 18.669 57.6866 18.7521 57.9889C18.8352 58.2912 18.9927 58.5383 19.226 58.7287C19.4593 58.9206 19.8238 59.0165 20.3195 59.0165L25.395 58.9336C25.8908 58.9336 26.283 59.0572 26.5717 59.3043C26.8604 59.5514 27.0047 59.9351 27.0047 60.4554C27.0047 62.265 26.9843 63.5891 26.9435 64.4248C26.9027 65.262 26.6752 65.81 26.2626 66.0701C25.8499 66.3318 25.169 66.4204 24.2198 66.3376C23.2706 66.2547 21.9015 66.214 20.114 66.214C19.5905 66.214 19.2056 66.3579 18.9592 66.6457C18.7113 66.9335 18.5874 67.3245 18.5874 67.8187L18.6705 72.8375C18.6705 73.9348 18.1193 74.5235 17.02 74.6063C15.7544 74.6892 14.4684 74.7982 13.1619 74.9348C11.8555 75.0714 10.5681 75.1412 9.30392 75.1412H9.30246Z" fill="#094D92"/>
<path d="M34.1023 56.2187C34.0746 55.396 33.6488 54.9847 32.8236 54.9847C31.9983 54.9847 31.5026 54.5879 31.4209 53.7914L30.9674 48.4441C30.8843 47.3482 31.3801 46.7436 32.4532 46.6346L45.2039 45.277C46.6066 45.1128 48.1273 45.1273 49.7633 45.3177C51.3992 45.5096 52.9258 45.9209 54.343 46.5517C55.7602 47.1825 56.9354 48.088 57.8715 49.2668C58.8061 50.4455 59.2742 51.9397 59.2742 53.7507C59.2742 55.8902 58.8615 57.6038 58.0363 58.8931C57.211 60.1823 55.9323 61.2244 54.1987 62.0195C53.2086 62.4584 53.1124 63.034 53.91 63.7476L59.2333 68.4786C60.0586 69.2185 60.0178 69.9045 59.1094 70.5353L53.0031 74.7314C52.067 75.3622 51.2971 75.2256 50.692 74.3201L45.4518 66.7926C44.819 65.861 44.5026 65.9569 44.5026 67.0804V72.6341C44.5026 73.7315 43.9514 74.3201 42.8521 74.403L36.2092 74.855C35.1083 74.9378 34.5441 74.4306 34.5178 73.3332L34.1052 56.2216L34.1023 56.2187ZM44.5011 57.9875C45.0508 57.9875 45.6355 57.9672 46.2552 57.9265C46.8748 57.8858 47.4581 57.7768 48.0092 57.598C48.5589 57.4207 49.0124 57.1387 49.371 56.755C49.7283 56.3713 49.9076 55.8233 49.9076 55.1097C49.9076 54.6984 49.8245 54.3699 49.6597 54.1228C49.495 53.8757 49.2748 53.6911 48.9992 53.5676C48.7237 53.444 48.4277 53.3684 48.1127 53.3408C47.7963 53.3132 47.4726 53.3001 47.1431 53.3001C46.7028 53.3001 46.2625 53.3277 45.8221 53.383C45.3818 53.4382 44.9415 53.4934 44.5011 53.5472V57.9905V57.9875Z" fill="#094D92"/>
<path d="M61.7266 47.7347C61.7266 43.5764 64.1192 41.4979 68.9075 41.4979C73.6957 41.4979 76.0461 43.5764 76.0461 47.7347C76.0461 51.8931 73.6666 54.0137 68.9075 54.0137C64.1484 54.0137 61.7266 51.9207 61.7266 47.7347ZM63.4062 74.4828C62.3142 74.4828 61.782 73.9247 61.8111 72.8084L62.441 56.9439C62.4687 55.8276 63.0563 55.2695 64.2053 55.2695L73.2335 55.3945C74.3533 55.3945 74.9264 55.9526 74.9555 57.0689L75.5008 72.9756C75.5285 74.0918 74.9818 74.6499 73.8634 74.6499L63.4077 74.4828H63.4062Z" fill="#094D92"/>
<path d="M78.8574 47.7347C78.8574 43.5764 81.2501 41.4979 86.0384 41.4979C90.8266 41.4979 93.177 43.5764 93.177 47.7347C93.177 51.8931 90.7974 54.0137 86.0384 54.0137C81.2793 54.0137 78.8574 51.9207 78.8574 47.7347ZM80.5371 74.4828C79.445 74.4828 78.9128 73.9247 78.942 72.8084L79.5719 56.9439C79.5996 55.8276 80.1872 55.2695 81.3361 55.2695L90.3644 55.3945C91.4842 55.3945 92.0572 55.9526 92.0864 57.0689L92.6317 72.9756C92.6594 74.0918 92.1126 74.6499 90.9943 74.6499L80.5386 74.4828H80.5371Z" fill="#094D92"/>
<path d="M105.132 54.4497C105.846 53.6546 105.668 53.3116 104.595 53.4206L98.4887 54.1198C97.3879 54.2302 96.742 53.7637 96.5495 52.7215L95.4356 47.0036C95.2154 45.9339 95.6688 45.3728 96.7974 45.3176L118.544 44.1664C119.617 44.1388 120.112 44.6606 120.03 45.7289L119.534 51.4468C119.451 52.5442 119.039 53.5035 118.296 54.3261L110.249 63.4989C109.506 64.3216 109.698 64.6501 110.827 64.4859L118.378 63.3754C119.507 63.2112 120.084 63.6777 120.112 64.7736L120.36 72.3418C120.415 73.4668 119.892 74.0424 118.792 74.07L97.9945 75.1397C96.8936 75.1673 96.3293 74.6455 96.3031 73.5758L96.0552 66.3361C96.0275 65.2664 96.3848 64.3071 97.1284 63.4568L105.133 54.4482L105.132 54.4497Z" fill="#094D92"/>
<path d="M132.037 54.4497C132.752 53.6546 132.574 53.3116 131.501 53.4206L125.394 54.1198C124.293 54.2302 123.647 53.7637 123.455 52.7215L122.341 47.0036C122.121 45.9339 122.574 45.3728 123.703 45.3176L145.45 44.1664C146.523 44.1388 147.017 44.6606 146.936 45.7289L146.44 51.4468C146.357 52.5442 145.944 53.5035 145.202 54.3261L137.155 63.4989C136.411 64.3216 136.604 64.6501 137.732 64.4859L145.284 63.3754C146.412 63.2112 146.99 63.6777 147.017 64.7736L147.265 72.3418C147.32 73.4668 146.797 74.0424 145.698 74.07L124.9 75.1397C123.799 75.1673 123.235 74.6455 123.209 73.5758L122.961 66.3361C122.933 65.2664 123.29 64.3071 124.034 63.4568L132.039 54.4482L132.037 54.4497Z" fill="#094D92"/>
<path d="M158.941 54.4497C159.656 53.6546 159.478 53.3116 158.405 53.4206L152.298 54.1198C151.197 54.2302 150.552 53.7637 150.359 52.7215L149.245 47.0036C149.025 45.9339 149.478 45.3728 150.607 45.3176L172.354 44.1664C173.427 44.1388 173.921 44.6606 173.84 45.7289L173.344 51.4468C173.261 52.5442 172.848 53.5035 172.106 54.3261L164.059 63.4989C163.315 64.3216 163.508 64.6501 164.636 64.4859L172.188 63.3754C173.316 63.2112 173.894 63.6777 173.921 64.7736L174.169 72.3418C174.225 73.4668 173.701 74.0424 172.602 74.07L151.804 75.1397C150.703 75.1673 150.139 74.6455 150.113 73.5758L149.865 66.3361C149.837 65.2664 150.194 64.3071 150.938 63.4568L158.943 54.4482L158.941 54.4497Z" fill="#094D92"/>
<path d="M89.2665 38.6754C88.5768 39.062 87.8128 39.2771 86.9729 39.3193C86.1331 39.3629 85.3253 39.2975 84.5496 39.126C84.0335 38.9966 83.5261 38.8266 83.0318 38.6115C82.5361 38.3978 82.138 38.0969 81.8362 37.7103C81.4906 37.2815 81.2763 36.7234 81.1903 36.0359C81.1028 35.3499 81.0941 34.6406 81.1582 33.911C81.2224 33.1813 81.3623 32.4735 81.5781 31.786C81.7925 31.1 82.0301 30.52 82.2882 30.0477C82.8044 29.1044 83.408 28.2236 84.0977 27.4067C84.7859 26.5913 85.5397 25.8181 86.3591 25.0885C87.2208 24.2731 88.0606 23.4577 88.8786 22.6408C89.6966 21.8254 90.3425 20.8807 90.8164 19.8066C91.2042 18.8197 91.2042 17.7572 90.8164 16.6191C90.4285 15.4825 89.7389 14.6555 88.7488 14.1395C88.275 13.8823 87.7151 13.7747 87.0692 13.8169C86.4232 13.8605 85.8415 14.0102 85.3253 14.2674C84.7217 14.5683 84.1953 14.9433 83.7419 15.3939C83.2899 15.8444 82.8583 16.3284 82.45 16.843C82.0403 17.3575 81.6102 17.8633 81.1582 18.356C80.7062 18.8502 80.1988 19.247 79.6404 19.5479C79.0805 19.9345 78.3908 20.0856 77.5728 19.9984C77.271 19.9563 76.9051 19.8589 76.4749 19.7092C76.0433 19.5595 75.6234 19.3662 75.2152 19.1293C74.8055 18.8938 74.4293 18.6249 74.0852 18.324C73.7411 18.0246 73.5034 17.7441 73.3751 17.4868C73.117 17.0145 73.0091 16.5203 73.0514 16.0058C73.0952 15.4912 73.1593 14.9971 73.2453 14.5247C73.3328 13.9244 73.5034 13.3648 73.7615 12.8503C74.0196 12.3358 74.2995 11.8416 74.6013 11.3692C75.6351 9.73844 77.0246 8.36492 78.7684 7.2472C80.5123 6.13095 82.3319 5.3577 84.2274 4.92893C86.1652 4.50016 88.1787 4.40423 90.2681 4.63969C92.3561 4.87661 94.2836 5.48851 96.0508 6.47542C96.7827 6.90564 97.5147 7.38819 98.2481 7.92452C98.98 8.4623 99.5822 9.09455 100.058 9.82419C100.789 10.9419 101.295 12.1977 101.575 13.5916C101.855 14.9869 101.908 16.372 101.737 17.7456C101.565 18.9912 101.221 20.2252 100.703 21.449C100.186 22.6728 99.5181 23.7789 98.7001 24.7658C98.0964 25.539 97.4403 26.2469 96.7302 26.8907C96.0202 27.5346 95.3407 28.2221 94.6948 28.9518C93.7033 29.9823 92.9072 31.2497 92.3036 32.7511C92.0455 33.3528 91.8399 33.9749 91.6897 34.6188C91.5381 35.2627 91.334 35.8862 91.0759 36.4865C90.8601 36.9167 90.6122 37.3353 90.3323 37.7423C90.0523 38.1507 89.6966 38.4618 89.2665 38.6769V38.6754ZM94.6933 9.43612C94.9077 9.69338 95.1453 9.82274 95.4034 9.82274C95.6615 9.82274 95.8875 9.73698 96.0814 9.56548C96.2753 9.39397 96.3934 9.17886 96.4372 8.92159C96.4795 8.66433 96.3934 8.40707 96.1791 8.14835C96.0916 8.0626 96.0071 7.98702 95.921 7.92306C95.8335 7.85911 95.749 7.78353 95.6629 7.69778C95.2314 7.31116 94.7473 7.00012 94.2093 6.7632C93.6698 6.52774 93.1434 6.28065 92.6258 6.02194C92.41 5.93618 92.1622 5.89258 91.8822 5.89258C91.6023 5.89258 91.3544 5.85043 91.1386 5.76322C90.9228 5.67747 90.5889 5.62369 90.1369 5.60189C89.6849 5.58008 89.351 5.59171 89.1352 5.63386C88.7897 5.72107 88.5637 5.88095 88.4572 6.11641C88.3493 6.35333 88.3173 6.58879 88.361 6.82425C88.4033 7.06116 88.5229 7.26465 88.7168 7.43615C88.9107 7.60766 89.179 7.65127 89.5245 7.56551C89.6543 7.52336 89.8686 7.51173 90.1705 7.53354C90.4708 7.55534 90.6647 7.58731 90.7522 7.62947C90.8382 7.67307 91.0103 7.69342 91.2684 7.69342C91.5264 7.69342 91.6985 7.71522 91.7845 7.75737C92.2584 8.05824 92.7745 8.29515 93.3344 8.46521C93.8943 8.63671 94.3463 8.95938 94.6919 9.43176L94.6933 9.43612ZM96.5028 10.6599C96.5888 11.0044 96.8031 11.2297 97.1487 11.3358C97.4928 11.4433 97.8165 11.3678 98.1183 11.1105C98.4187 10.8954 98.5484 10.6178 98.5062 10.2733C98.4624 9.9303 98.2685 9.67303 97.9244 9.50007C97.5366 9.28641 97.1808 9.31839 96.8586 9.596C96.5349 9.87506 96.4168 10.2297 96.5028 10.6585V10.6599Z" fill="#094D92"/>
</g>
<defs>
<clipPath id="clip0_454_738">
<rect width="180" height="81" fill="white"/>
</clipPath>
</defs>
</svg>
