<svg width="40" height="40" viewBox="0 0 40 40" fill="none" xmlns="http://www.w3.org/2000/svg">
<circle cx="20" cy="20" r="19.5" fill="#8B85C1" stroke="white"/>
<path fill-rule="evenodd" clip-rule="evenodd" d="M27.4551 28.3002H13.0183C12.2413 28.3002 11.6675 27.5335 11.9606 26.8284C13.3204 23.568 16.515 21.7002 20.2362 21.7002C23.9585 21.7002 27.1531 23.568 28.5129 26.8284C28.806 27.5335 28.2322 28.3002 27.4551 28.3002ZM15.7447 15.1002C15.7447 12.6736 17.7602 10.7002 20.2362 10.7002C22.7132 10.7002 24.7277 12.6736 24.7277 15.1002C24.7277 17.5268 22.7132 19.5002 20.2362 19.5002C17.7602 19.5002 15.7447 17.5268 15.7447 15.1002ZM31.1876 27.8998C30.3712 24.2049 27.8178 21.4779 24.4571 20.2404C26.2379 18.8357 27.2766 16.5642 26.8948 14.0771C26.4524 11.1918 24.0023 8.88296 21.0446 8.54636C16.9619 8.08106 13.4989 11.1941 13.4989 15.1002C13.4989 17.1792 14.4825 19.0315 16.0164 20.2404C12.6545 21.4779 10.1022 24.2049 9.28475 27.8998C8.98832 29.2429 10.0932 30.5002 11.4957 30.5002H28.9766C30.3802 30.5002 31.4851 29.2429 31.1876 27.8998Z" fill="#F7F7FF"/>
</svg>
