<svg width="21" height="21" viewBox="0 0 21 21" fill="none" xmlns="http://www.w3.org/2000/svg">
<path d="M13.8386 10.3033L15.6064 12.0711L19.1419 8.53559C21.0945 6.58291 21.0945 3.41708 19.1419 1.46447C17.1894 -0.488156 14.0235 -0.488156 12.0709 1.46447L8.5354 4.99999L10.3032 6.76777L13.8386 3.23223C14.815 2.25592 16.3979 2.25592 17.3741 3.23223C18.3505 4.20854 18.3505 5.79146 17.3741 6.76777L13.8386 10.3033Z" fill="#8B85C1"/>
<path d="M10.3033 13.839L12.071 15.6067L8.53552 19.1422C6.58292 21.0948 3.41709 21.0948 1.46447 19.1422C-0.488156 17.1896 -0.488156 14.0238 1.46447 12.0712L5.00001 8.53558L6.76777 10.3033L3.23223 13.839C2.25592 14.8152 2.25592 16.3981 3.23223 17.3745C4.20854 18.3507 5.79146 18.3507 6.76777 17.3745L10.3033 13.839Z" fill="#8B85C1"/>
<path d="M13.8389 8.5354C14.327 8.04727 14.327 7.25576 13.8389 6.76761C13.3506 6.27945 12.5592 6.27945 12.071 6.76761L6.76773 12.0709C6.27957 12.559 6.27957 13.3505 6.76773 13.8386C7.25588 14.3268 8.04736 14.3268 8.53548 13.8386L13.8389 8.5354Z" fill="#8B85C1"/>
</svg>
